<svg xmlns="http://www.w3.org/2000/svg" width="117.143" height="170.456" viewBox="0 0 117.143 170.456"><g fill="#09A8E9" stroke="#3C3C3B" stroke-linecap="round" stroke-linejoin="round" stroke-miterlimit="10"><path stroke-width="2.32" d="M40.156 151.519V93.528H16.954V68.007h26.2S33.793 33.89 60.396 23.058c26.602-10.833 33.254-.213 33.254-.213l-.19 25.167s-25.462-12.459-25.462 6.545v10.728l24.179-.087-.309 26.412-25.143-.379-.78 60.288s-28.109-.328-25.789 0z"/><path stroke-width="2.259" d="M61.392 144.623c1.424.217 2.881.214 4.326.167M61.392 140.105c1.424.217 2.881.214 4.326.167M61.392 135.586c1.424.217 2.881.214 4.326.167M61.392 131.068c1.424.217 2.881.214 4.326.167M61.392 126.549c1.424.217 2.881.214 4.326.167M61.392 122.03c1.424.217 2.881.214 4.326.167M61.392 117.512c1.424.217 2.881.214 4.326.167M61.392 112.993c1.424.217 2.881.214 4.326.167M61.392 108.475c1.424.217 2.881.214 4.326.167M61.392 103.956c1.424.217 2.881.214 4.326.167M61.392 99.438c1.424.217 2.881.214 4.326.167M61.392 94.919c1.424.217 2.881.214 4.326.167M57.512 31.212c-8.032 8.44-10.764 21.575-9.326 33.063M82.767 22.7c1.242-.137 2.52.104 3.603.742M85.787 87.482c1.797.299 3.772.276 5.672.236"/><path stroke-width="2.32" d="M87.719 84.248h2.32"/><path stroke-width="2.259" d="M85.787 79.682c1.509.278 3.199.123 4.49-.473M85.551 76.609a36.676 36.676 0 0 0 4.254-.473"/><path stroke-width="2.32" d="M85.399 74.967h4.64"/><path stroke-width="2.259" d="M86.023 69.755c2.047.094 4.117-.027 6.145-.236M87.678 42.337c1.397.26 2.986.088 4.254-.473M86.969 39.264c1.657.102 3.942.004 5.436-.237M87.206 35.483c1.352.207 2.92.12 4.254-.237M87.442 32.647c1.342-.015 3.225-.227 4.254-.473M87.914 29.337c1.177.281 2.631.179 3.545-.236M89.332 26.028a7.57 7.57 0 0 0 3.309 0M61.916 91.028a25.014 25.014 0 0 1 5.672.236"/><path stroke-width="2.32" d="M59.877 149.212h4.64"/><path stroke-width="2.259" d="M21.97 88.9c.024-4.415-.319-8.825-.236-13.236M27.879 90.082c3.37.362 6.767.234 10.163.236M44.897 141.845c-.005-6.863.512-13.696 0-20.564M44.897 115.136c.237-2.162.178-4.424.473-6.618"/></g></svg>