<svg xmlns="http://www.w3.org/2000/svg" width="1336" height="1224" viewBox="0 0 1336 1224"><path opacity=".6" fill="#C5E8F0" stroke="#424143" stroke-width="1.76" stroke-miterlimit="10" d="M422.286 172.966c23.987-.049 47.924.493 71.911 1.675 39.945 2.02 79.595 7.979 119.491 10.491 13.594 25.563-27.976 64.326-27.188 91.366.443 14.727 6.403 28.419 15.564 39.699-.936.985-1.921 2.02-2.807 3.054-.591.69.345 1.626.985.985.887-.985 1.871-1.872 2.808-2.857 7.24 8.521 16.352 15.564 26.252 20.342 44.378 21.327 121.313 8.324 142.837-41.029 11.378-26.154-2.167-46.693-15.86-68.562-4.334-6.896-11.673-17.83-8.964-26.597 5.418-17.436 25.415-13.397 37.876-13.2 22.706.295 45.363.591 68.02.887 23.198.345 46.397.837 69.645 1.33-.049 25.76.197 51.52.788 77.28.739 32.114-1.97 68.562 4.63 100.577-1.133 13.545 9.949 25.711 24.627 28.272 34.576 6.107 55.017-35.315 91.908-13.988-.099.098-.197.148-.246.197-.887.788.394 2.02 1.281 1.281.197-.148.345-.295.542-.493 40.29 25.021 34.035 84.964 11.821 120.279-13.249 21.032-36.448 37.187-60.681 23.839-12.707-6.994-20.588-21.623-34.97-25.908-21.721-6.502-32.951 12.116-35.315 30.833-5.467 43.491-2.069 89.889-2.561 133.676-.148 14.284-.246 28.568-.345 42.802-12.412 0-24.873 0-37.286-.049 4.482-4.039 8.964-8.176 13.299-12.412.739-.64-.295-1.626-1.034-1.035-5.221 4.334-10.294 8.866-15.318 13.446h-7.635c-14.037 0-28.075-.049-42.112-.049a3039.43 3039.43 0 0 0 48.909-41.866c.739-.64-.345-1.724-1.083-1.084-16.993 14.185-33.838 28.469-50.535 42.95-8.029 0-16.057 0-24.135-.049-9.851 0-29.356 2.808-42.851-1.034 16.697-15.072 33.247-30.34 49.697-45.658.887-.838-.443-2.167-1.379-1.379a4072.135 4072.135 0 0 0-50.338 46.397c-8.619-3.103-14.234-9.407-11.919-21.869 1.281-6.945 9.161-13.791 12.363-20.293 3.349-6.649 5.615-13.299 6.748-20.638 12.51-12.806 24.824-25.859 37.039-38.96.738-.788-.444-1.97-1.182-1.182-11.969 12.314-23.839 24.726-35.512 37.335 1.231-11.23-.443-22.509-4.285-33.148a78.694 78.694 0 0 0-9.161-17.781c6.994-7.29 13.939-14.579 20.736-22.017.739-.788-.443-2.019-1.182-1.182-6.896 7.191-13.693 14.53-20.391 21.918-27.484-38.615-85.85-47.333-129.144-30.045-21.721 8.669-41.325 25.169-44.772 49.451-4.581 32.852 24.775 60.632 20.588 92.696-26.597-.64-53.195-.788-79.841-.739 9.456-11.87 20.342-22.164 32.902-30.981 1.084-.739.05-2.561-1.083-1.823-13.496 8.767-25.218 19.899-34.823 32.803-20.391.049-40.782.197-61.223.443 16.106-17.042 32.951-33.296 50.486-48.86.887-.739-.394-1.97-1.232-1.232-18.47 15.614-35.759 32.409-52.111 50.141-9.9.099-19.8.197-29.7.345l-.148-24.824c17.485-20.194 36.399-38.32 56.495-56.002.985-.887-.394-2.66-1.429-1.872-20.391 15.466-38.763 34.034-55.066 53.785-.148-18.717-.295-37.384-.591-56.1 13.496-15.614 27.484-30.735 41.817-45.609.886-.887-.444-2.217-1.379-1.379-14.333 13.643-27.78 28.272-40.487 43.491-.246-17.337-.64-34.675-1.182-52.013 11.132-10.589 22.263-21.179 33.296-31.867.788-.788-.443-1.97-1.232-1.232a3754.551 3754.551 0 0 0-32.163 30.341c-.443-12.511-.887-25.071-1.477-37.581 3.251-3.004 4.63-8.423.936-12.905-4.581-5.566-10.048-8.964-16.155-10.639 10.442-10.442 21.376-20.293 32.754-29.651.837-.689-.345-1.822-1.182-1.182-11.92 9.358-23.1 19.505-33.591 30.341-4.974-1.034-10.294-1.034-15.958 0-20.244 3.694-36.596 19.505-53.589 17.731a2371.323 2371.323 0 0 0 51.52-50.436c.887-.887-.444-2.217-1.33-1.379a2369.527 2369.527 0 0 0-52.997 51.372c-6.107-1.379-12.363-5.221-18.913-12.904-4.137-4.827-7.733-10.344-10.885-16.303 15.466-13.742 30.833-27.632 45.856-41.817.886-.788-.394-2.069-1.281-1.281-15.367 13.545-30.439 27.484-45.412 41.472-6.797-13.2-11.23-28.321-12.954-42.654 7.88-10.984 16.993-20.884 27.631-29.553.887-.739-.394-1.97-1.281-1.281-10.195 7.979-19.16 17.239-26.647 27.582-.197-2.069-.443-4.186-.493-6.255-1.133-29.306 16.353-66.887 51.372-62.7 24.676 2.906 53.884 54.721 79.89 19.751 7.142-9.654 7.979-22.312 7.683-34.183 8.521-13.249 18.52-25.415 29.898-36.448.837-.837-.443-2.118-1.281-1.281-11.082 10.393-20.539 21.918-28.715 34.527a162.34 162.34 0 0 0-.197-4.975c-.443-9.161-.887-18.372-1.33-27.582 8.028-9.998 16.993-18.963 26.843-27.533.838-.739-.345-2.315-1.281-1.626-9.703 7.388-18.273 16.303-25.71 26.006-.739-15.761-1.428-31.473-1.921-47.235 9.801-11.181 20.44-20.884 33.394-28.962.837-.542.099-1.822-.788-1.33-12.363 6.698-23.839 15.86-32.705 26.942-.148-3.694-.246-7.339-.345-10.984-.394-14.087-.591-28.174-.739-42.26 6.847-7.782 14.234-15.022 22.362-21.918.739-.591-.296-1.97-1.084-1.379-7.733 5.812-14.875 12.461-21.278 19.751-.1-11.569-.15-23.194-.1-34.768z"/></svg>