<svg xmlns="http://www.w3.org/2000/svg" width="117.143" height="170.456" viewBox="0 0 117.143 170.456"><g fill="#F90000" stroke="#000" stroke-width="1.186" stroke-miterlimit="10"><path d="M42.93 72.929s-18.152 59.147-9.228 62.02c8.925 2.873 20.724-29.497 19.968-36.304.045.4 6.515 1.25 6.959 1.32 4.976.792 10.081 1.24 15.102.616 15.041-1.869 23.574-14.696 25.361-28.951.581-4.633.488-9.322-.022-13.956-.485-4.403-.838-9.84-2.434-13.992-6.204-16.135-20.979-26.8-38.41-25.368-11.273.925-22.211 4.599-31.222 11.566-3.426 2.649-6.604 6.201-8.731 9.995-2.34 4.172-3.595 10.199-4.269 14.9a34.76 34.76 0 0 0 .735 13.579c1.114 4.369 4.074 14.647 9.257 16.149 1.411.41 3.989-.466 4.68-1.896 2.177-4.504-.146-8.238-1.651-12.47-1.522-4.279-.189-11.592 1.284-15.721 1.775-4.977 5.162-9.295 9.378-12.447 7.823-5.85 18.323-7.133 27.369-3.476 4.555 1.841 10.013 5.355 13.038 9.313 2.846 3.725 4.525 10.817 4.886 15.419.367 4.675-.848 9.167-2.924 13.327-2.88 5.772-7.332 14.617-14.793 14.967-5.693.266-11.932-5.476-12.824-10.836-.942-5.662 2.202-11.202 4.48-16.172 1.82-3.971 4.82-10.32 2.623-14.653-3.867-7.628-17.565-.706-20.964 3.89-2.151 2.908-2.923 6.957-2.656 10.504.131 1.742.445 3.327 1.295 4.867.191.344 3.583 4.233 3.713 3.81zM37.301 126.838c1.825.332 3.702.825 5.505 1.322M40.383 121.773c1.244.378 2.492.745 3.743 1.101M41.705 116.93c2.191.182 4.308.866 6.385 1.541M44.347 112.085a26.751 26.751 0 0 0 4.624 1.541M46.989 105.039c1.716.367 3.381.997 4.844 1.983M48.97 100.415a73.318 73.318 0 0 0 3.523 1.982M94.989 78.398c5.035-10.501.595-30.112-4.845-39.853M63.062 25.554c7.253-1.31 12.821 1.729 16.734 7.926"/></g></svg>