<svg xmlns="http://www.w3.org/2000/svg" width="154.286" height="170.456" viewBox="0 0 154.286 170.456"><g fill="#09C6E9" stroke="#3C3C3B" stroke-linecap="round" stroke-linejoin="round" stroke-miterlimit="10"><path stroke-width="4.147" d="M19.889 37.161s29.344 30.329 52.77 27.371c0 0-3.329-12.7 6.164-22.192 9.492-9.494 15.781-11.344 26.631-6.659 10.851 4.687 22.44 5.908 24.413-2.47 0 0 2.467 8.638-3.452 13.569 0 0 8.63-4.686 12.082-1.48 0 0-13.071 9.527-14.304 19.435-1.231 9.908-4.191 43.445-31.562 59.474-27.371 16.025-58.196 17.262-80.388 0 0 0 26.387 1.972 34.77-8.88 0 0-20.715-7.642-23.92-21.698 0 0 6.657 4.189 14.302 2.958 0 0-22.933-14.056-23.178-29.097 0 0 6.657 5.425 13.562 3.453 0 0-17.013-16.524-7.89-33.784z"/><path stroke-width="2.765" d="M24.554 78.689c2.109 4.34 9.461 9.071 13.644 11.939M38.767 104.557c3.436 2.258 7.336 2.833 11.371 3.127M23.133 53.959c.707 3.95 4.097 8.44 7.959 9.664M114.379 76.415a68.33 68.33 0 0 1 5.685 3.411M113.527 81.247c1.354.904 4.887 2.499 6.822 3.98M112.958 86.08c2.196.861 4.26 2.132 5.969 3.695M109.547 91.765c2.334.865 4.875 1.711 6.822 3.411M108.694 95.744c2.422.9 5.315 1.558 6.538 3.696M106.704 98.871c2.462 1.174 5.087 2.48 6.822 4.549M103.293 104.557a75.525 75.525 0 0 1 5.401 3.411M98.177 108.82c2.605 1.232 5.254 2.431 7.675 3.98M94.197 114.222a60.02 60.02 0 0 0 4.832 2.842M90.786 117.064a19.863 19.863 0 0 1 6.254 3.127M85.953 120.475c.95 1.536 3.575 3.538 5.685 4.833M80.837 122.464c1.013 1.135 2.782 2.67 4.264 3.696M76.005 123.318a69.41 69.41 0 0 1 3.411 5.401M71.456 125.592c1.328 1.861 3.105 3.496 4.833 5.116M68.045 128.15c.475 1.78 1.875 3.334 3.696 4.264M57.244 132.13a19.248 19.248 0 0 0 2.274 2.842M61.223 131.276c1.077 1.236 2.686 2.518 4.264 3.411M50.422 133.266c1.115 1.297 2.28 2.656 3.411 3.98M116.369 68.456a8.846 8.846 0 0 1 4.832 2.274M118.643 64.477c1.33.4 2.694.887 3.98 1.421"/></g></svg>